<svg width="246" height="185" viewBox="0 0 246 185" fill="none" xmlns="http://www.w3.org/2000/svg">
<path d="M42.1405 7.78387C43.0079 8.70657 43.8486 9.7899 44.6627 11.0338C46.9169 14.4787 48.2179 18.2582 48.5657 22.3721C48.6443 23.2882 48.6753 24.7431 48.6587 26.737C48.6366 29.3179 48.6283 34.9948 48.6338 43.7677C48.6349 45.1656 48.5945 46.3425 48.5125 47.2985C48.451 48.0262 47.828 48.3519 47.0803 48.415C46.5486 48.4604 45.9493 48.4865 45.2825 48.4931C43.2355 48.513 40.7659 48.5108 37.8737 48.4865C34.0721 48.4549 31.1262 48.5446 26.9641 48.5695C23.847 48.5878 21.6372 48.5496 19.1964 47.9149C18.8708 47.8296 18.1989 47.6391 17.181 47.3433C14.2118 46.4777 11.4321 44.8577 9.01787 42.9519C7.57566 41.8137 6.09689 40.222 4.93382 38.7798C4.66797 38.4508 4.10803 37.6062 3.25401 36.2459C1.38644 33.2751 0.284845 29.7228 0.0638615 26.0906C-0.0457997 24.2818 -0.0142306 22.5001 0.158569 20.7455C0.189584 20.4276 0.221707 20.2099 0.254938 20.0925C0.648722 18.7101 0.887983 17.1815 1.49943 15.6828C1.92478 14.6371 2.51739 13.4309 3.27727 12.064C5.26778 8.48338 8.36488 5.49428 12.0153 3.3941C13.0886 2.77712 13.9798 2.32518 14.6887 2.03829C17.1461 1.04303 19.6251 0.285371 22.2271 0.100941C24.1112 -0.0330897 25.7041 -0.0336451 27.0056 0.0992775C27.5694 0.156877 28.5586 0.329679 29.9731 0.617678C30.9169 0.810416 31.6496 1.18094 32.5435 1.41189C32.7285 1.45952 33.0636 1.58746 33.5487 1.7957C36.8641 3.2213 39.728 5.21735 42.1405 7.78387Z" fill="#FFF67C"/>
<path d="M30.2054 124.966C26.7184 125.901 23.8036 126.799 21.4608 127.659C17.5518 129.096 13.517 130.904 9.35652 133.083C7.92927 133.83 6.47708 133.137 5.74435 131.827C5.26029 130.961 5.15893 130.075 5.44029 129.168C5.7593 128.138 7.28625 127.357 8.19677 126.932C11.9696 125.169 15.7927 123.646 19.6663 122.362C21.2415 121.841 22.7169 121.404 24.0927 121.053C26.1375 120.531 27.6362 120.181 28.5888 120.001C28.8469 119.953 29.1626 119.913 29.5358 119.883C29.5812 119.88 29.6235 119.859 29.6543 119.826C29.6851 119.793 29.7021 119.749 29.702 119.704V115.585C29.7021 115.545 29.6883 115.505 29.6629 115.474C29.6375 115.442 29.602 115.421 29.5624 115.412C27.4789 114.964 25.6091 114.515 23.9531 114.066C22.2029 113.593 20.9119 113.267 20.0801 113.088C17.2643 112.479 15.1281 112.039 13.6715 111.77C13.1011 111.665 11.4689 111.426 8.77499 111.054C7.43413 110.87 6.38238 109.615 6.37241 108.239C6.36465 106.971 6.86976 105.984 7.88773 105.277C8.69357 104.717 9.64729 104.813 10.5495 105.011C14.7033 105.917 18.2358 106.807 21.926 107.638C22.9728 107.874 24.9434 108.386 26.4836 108.864C28.6835 109.546 29.8538 109.913 29.9944 109.962C30.0053 109.966 30.0168 109.968 30.0283 109.966C30.0397 109.965 30.0507 109.961 30.0603 109.955C30.07 109.948 30.078 109.94 30.0839 109.93C30.0898 109.92 30.0933 109.909 30.0941 109.898C30.1429 109.311 30.2021 108.48 30.2719 107.407C30.4829 104.135 31.091 100.635 32.1345 97.373C33.035 94.5561 34.1328 91.973 35.4276 89.6236C36.861 87.0227 38.3902 84.6667 40.0151 82.5554C42.0765 79.8759 44.406 77.4196 47.0035 75.1865C47.3109 74.9223 47.399 74.7628 47.4239 74.3474C47.5037 72.9761 47.6283 71.8773 47.7978 71.0509C48.7393 66.4485 49.9854 61.8976 51.5362 57.3981C52.0513 55.9016 52.779 54.0191 53.7195 51.7506C54.7241 49.3258 55.5339 47.4766 56.1486 46.2027C58.2305 41.8877 60.2709 38.1542 62.6701 34.2746C64.5621 31.2151 66.3222 28.6985 67.9505 26.7246C68.881 25.598 70.3348 24.0744 71.8468 23.1905C73.4668 22.2434 75.1915 22.275 76.8812 23.0559C77.8217 23.4912 78.7981 24.0512 79.8105 24.7357C81.3646 25.788 82.6135 26.7013 83.5573 27.4756C87.2979 30.5461 90.9882 34.0431 94.6281 37.9665C96.7648 40.2694 98.6855 42.5556 100.39 44.8253C101.465 46.2575 102.269 47.5236 103.276 49.0439C103.291 49.0672 103.314 49.0847 103.341 49.0934C103.367 49.1022 103.396 49.1017 103.423 49.0921C104.171 48.8163 104.942 48.5842 105.734 48.3959C108.859 47.6538 112.095 47.0911 115.442 46.7078C116.161 46.6247 117.936 46.4686 120.766 46.2393C121.399 46.1878 122.06 46.2409 122.71 46.0931C122.801 46.0721 122.895 46.0609 122.989 46.0598C126.425 46.0266 128.687 46.0338 129.776 46.0814C132.078 46.1844 135.168 46.4226 139.048 46.7959C139.18 46.8092 140.371 46.9759 142.62 47.296C145.437 47.6981 148.222 48.3051 150.976 49.117C150.999 49.124 151.024 49.1238 151.048 49.1164C151.071 49.109 151.092 49.0947 151.107 49.0755C152.322 47.4727 153.643 45.856 155.07 44.2255C159.149 39.5599 163.584 35.1646 168.375 31.0396C169.809 29.805 171.316 28.6619 172.954 27.4673C174.017 26.6908 175.229 25.9226 176.592 25.1627C177.685 24.5524 178.761 24.1481 179.82 23.9498C181.85 23.571 183.962 25.2375 185.278 26.7495C186.158 27.7597 186.974 28.8375 187.727 29.9828C189.886 33.2616 191.549 35.9411 192.715 38.0213C193.304 39.0714 194.149 40.6504 195.249 42.7584C197.379 46.8424 199.215 51.0129 200.835 55.2415C201.512 57.006 202.326 59.2524 203.277 61.9806C203.876 63.6976 204.625 66.3156 205.525 69.8347C206.19 72.4322 206.536 74.4748 206.564 75.9624C206.565 76.0433 206.598 76.1209 206.657 76.1784C206.843 76.3645 207.51 76.9893 208.657 78.0527C212.728 81.8277 216.226 86.558 218.532 91.5809C219.431 93.5392 220.136 95.2722 220.647 96.7798C221.214 98.448 221.739 100.277 222.078 102.175C222.408 104.028 222.615 105.57 222.701 106.8C222.702 106.823 222.709 106.846 222.721 106.865C222.733 106.885 222.749 106.902 222.768 106.914C222.788 106.926 222.81 106.934 222.833 106.936C222.856 106.937 222.879 106.934 222.9 106.925C223.762 106.573 224.712 106.217 225.75 105.857C228.656 104.848 232.508 103.698 237.304 102.407C238.489 102.088 239.466 101.854 240.233 101.703C240.854 101.582 241.345 101.572 241.709 101.673C242.775 101.97 243.666 102.682 244.035 103.743C244.608 105.398 243.754 107.445 241.906 107.792C239.786 108.19 238.538 108.429 238.163 108.51C234.963 109.197 231.189 110.182 226.841 111.464C225.711 111.798 224.434 112.222 223.008 112.735C222.991 112.742 222.977 112.754 222.968 112.77C222.96 112.786 222.958 112.805 222.963 112.822C223.103 113.307 223.172 113.828 223.171 114.384C223.169 116.093 223.199 117.871 222.872 119.528C222.867 119.551 222.872 119.576 222.885 119.596C222.899 119.616 222.919 119.631 222.943 119.636C230.003 121.266 236.93 123.715 243.369 126.724C244.442 127.226 245.723 127.998 245.934 129.276C246.206 130.922 245.658 132.226 244.287 133.187C242.36 134.541 240.853 133.101 239.235 132.32C234.925 130.245 230.802 128.332 226.552 126.855C225.46 126.474 224.023 126.024 222.24 125.504C222.23 125.501 222.218 125.5 222.207 125.502C222.196 125.504 222.185 125.508 222.176 125.514C222.166 125.52 222.158 125.528 222.152 125.538C222.145 125.547 222.141 125.558 222.139 125.569C221.576 129.089 220.784 132.318 219.761 135.254C219.241 136.75 218.424 139.016 217.683 140.639C216.867 142.424 216.305 143.884 215.49 145.473C214.304 147.784 212.973 150.033 211.495 152.219C210.474 153.732 209.659 154.721 208.535 156.163C208.003 156.844 207.587 157.354 207.287 157.692C203.374 162.079 199.063 165.819 194.352 168.912C194.174 169.028 193.206 169.626 191.447 170.705C189.575 171.853 187.521 172.858 185.801 173.73C184.96 174.158 183.14 174.955 180.343 176.121C178.759 176.782 175.926 177.755 171.845 179.041C170.58 179.439 169.027 179.793 167.535 180.22C166.467 180.527 164.792 180.915 162.512 181.385C158.565 182.199 154.225 182.91 149.492 183.517C147.637 183.755 145.208 183.985 142.206 184.208C141.78 184.239 141.539 184.257 141.483 184.261C140.311 184.335 138.66 184.423 136.53 184.524C131.883 184.743 127.887 184.725 122.671 184.685C122.283 184.683 121.846 184.617 121.507 184.61C117.713 184.53 113.961 184.307 110.25 183.941C110.158 183.932 109.95 183.915 109.627 183.891C107.321 183.722 105.114 183.487 103.007 183.185C101.778 183.008 100.453 182.862 98.9115 182.623C92.7904 181.669 86.6511 180.278 80.8041 178.506C80.4707 178.405 79.347 178.047 77.4329 177.432C74.2577 176.412 71.1921 175.09 68.2512 173.76C67.2045 173.286 66.4169 172.913 65.8885 172.64C60.7699 169.995 56.1364 166.995 51.9881 163.64C46.6269 159.303 42.1142 154.135 38.45 148.134C38.3281 147.935 37.807 146.985 36.8865 145.283C36.3204 144.239 35.8436 143.267 35.4559 142.367C34.2884 139.657 33.4704 137.608 33.0018 136.221C31.8841 132.914 31.0622 129.707 30.5361 126.603C30.4552 126.125 30.3821 125.605 30.3168 125.041C30.3153 125.028 30.3112 125.016 30.3046 125.005C30.298 124.995 30.2892 124.985 30.2786 124.978C30.2681 124.971 30.2561 124.967 30.2434 124.964C30.2308 124.962 30.2179 124.963 30.2054 124.966Z" fill="black"/>
<path d="M23.5321 24.5797C23.5333 24.5562 23.5291 24.5327 23.5199 24.511C23.5107 24.4894 23.4967 24.47 23.4789 24.4545C23.4612 24.439 23.4402 24.4278 23.4174 24.4215C23.3947 24.4153 23.3709 24.4143 23.3477 24.4186C20.7081 24.8849 18.8217 25.2078 17.6885 25.3872C17.5545 25.4083 17.3474 25.4969 17.0671 25.6531C17.0197 25.68 16.9824 25.7214 16.9608 25.7711C16.8312 26.0701 16.7403 26.3033 16.6883 26.4706C16.2829 27.7799 15.749 29.3816 15.0866 31.2757C14.6313 32.58 14.284 33.8594 13.857 35.1205C13.7385 35.4739 13.6405 35.8289 13.5629 36.1856C13.3818 37.0246 13.332 37.9351 12.4613 38.0099C12.0836 38.0431 11.743 37.9241 11.4395 37.6527C10.0056 36.365 10.4891 35.1155 11.0823 33.2961C11.861 30.9146 12.4082 29.2597 12.7239 28.3315C13.0545 27.3545 13.4134 26.6218 13.5895 25.806C13.5943 25.7841 13.594 25.7615 13.5887 25.7397C13.5833 25.718 13.5731 25.6977 13.5587 25.6804C13.5443 25.6632 13.5261 25.6493 13.5056 25.64C13.485 25.6307 13.4626 25.626 13.44 25.6265C12.8468 25.6448 12.0858 25.2028 12.2104 24.5216C12.3085 23.9816 13.5463 23.8952 14.0448 23.8271C14.1232 23.8166 14.1971 23.7845 14.2585 23.7343C14.3198 23.6842 14.366 23.6179 14.392 23.5429C15.045 21.6704 15.8808 19.9125 16.5637 18.2393C17.868 15.0459 19.1839 11.9936 20.7408 9.0145C20.7792 8.94113 20.8395 8.88155 20.9134 8.84403C20.9872 8.80652 21.0709 8.79293 21.1528 8.80515C21.8883 8.91481 22.5518 9.18841 23.1433 9.62594C23.808 10.1178 23.3095 10.9485 22.9257 11.5666C22.7717 11.8125 22.6355 12.0861 22.5169 12.3874C21.8889 13.9841 20.8488 16.0993 20.1825 17.4966C19.3833 19.1748 18.835 20.838 18.2518 22.551C18.172 22.7836 18.125 23.0229 18.1106 23.2688C18.1097 23.2817 18.1119 23.2946 18.1169 23.3065C18.122 23.3185 18.1297 23.329 18.1396 23.3374C18.1494 23.3458 18.1611 23.3518 18.1736 23.3549C18.1862 23.358 18.1993 23.3581 18.2119 23.3552C20.291 22.8745 22.3303 22.5781 24.3297 22.4663C24.3665 22.4644 24.4017 22.4512 24.4306 22.4286C24.4595 22.406 24.4805 22.375 24.4908 22.34C24.6382 21.8415 24.7379 21.5308 24.7899 21.4079C25.737 19.2196 26.3833 17.5132 27.3221 15.443C28.3954 13.0769 29.0556 11.5976 29.3026 11.005C29.4732 10.5952 29.6084 10.2003 29.7081 9.82034C29.7296 9.73956 29.7749 9.66717 29.838 9.61262C29.9011 9.55808 29.9792 9.52392 30.062 9.51462C31.009 9.40828 32.1837 10.1161 32.5659 10.7874C33.2488 11.9787 32.5709 13.2481 31.9362 14.5557C30.7532 16.9965 29.2744 19.6018 28.2791 22.2802C28.2743 22.2938 28.2728 22.3083 28.2747 22.3226C28.2765 22.3369 28.2818 22.3505 28.2899 22.3622C28.2981 22.3739 28.3089 22.3835 28.3215 22.39C28.3341 22.3966 28.348 22.3999 28.3622 22.3998H30.8612C30.9353 22.3997 31.0072 22.4247 31.0651 22.4705C31.1231 22.5164 31.1636 22.5805 31.1802 22.6524C31.2455 22.9359 31.1331 23.1132 30.8429 23.1841C29.8925 23.4178 28.9249 23.5801 27.9402 23.6709C27.889 23.6753 27.8398 23.693 27.7973 23.7224C27.6267 23.8354 27.4993 23.9683 27.4151 24.1212C26.8912 25.0627 26.3905 26.1626 25.9131 27.421C24.4399 31.3012 23.4596 33.8594 22.9722 35.0956C22.8659 35.3681 22.6598 35.6821 22.5718 35.9696C22.2528 37.0147 21.2525 40.4839 20.4666 40.6667C19.4331 40.906 18.604 40.3012 18.3415 39.3209C18.2706 39.0595 18.3027 38.5422 18.4379 37.769C18.5054 37.378 18.7613 36.5954 19.2055 35.4212C20.6189 31.6761 21.7986 28.6599 22.7446 26.3725C22.9506 25.873 23.2004 25.3108 23.4939 24.6861C23.5183 24.6329 23.531 24.5975 23.5321 24.5797Z" fill="#282825"/>
<path d="M33.7762 17.6328C33.5835 17.1676 33.4788 16.9317 33.5436 16.3468C33.5502 16.2903 33.572 16.2363 33.6068 16.1906C33.6898 16.0832 33.825 16.0057 34.0122 15.958C35.173 15.6623 35.9551 16.0062 36.3583 16.9898C36.6241 17.6445 36.2287 18.344 35.6637 18.6464C35.4699 18.7505 35.3408 18.8984 35.2766 19.09C34.9388 20.0891 34.4015 20.9664 33.6649 21.7219C32.8458 22.5626 31.6877 22.2669 32.2792 20.916C32.7212 19.9091 33.2152 18.9039 33.7613 17.9004C33.7836 17.8593 33.7965 17.8139 33.7991 17.7676C33.8017 17.7214 33.7939 17.6753 33.7762 17.6328Z" fill="#282825"/>
<path d="M38.1886 26.294L38.2068 26.3073C38.3223 26.3879 38.4023 26.5099 38.4304 26.6481C38.4585 26.7862 38.4326 26.9301 38.358 27.05C37.1174 29.035 35.8414 30.8006 34.5299 32.347C33.7257 33.2957 32.5925 33.9088 31.358 33.2259C30.3234 32.6532 29.6106 31.7776 29.2196 30.599C29.1543 30.4008 29.1509 29.9715 29.2096 29.3113C29.2562 28.7774 29.4279 28.0602 29.7247 27.1597C30.0315 26.2347 30.3295 25.4162 30.6186 24.7039C30.7626 24.3483 31.0634 24.072 31.5208 23.8748C31.5756 23.8507 31.6351 23.8388 31.6953 23.8399C32.5377 23.8565 33.4781 23.9811 34.1211 24.566C34.1609 24.6015 34.1868 24.6497 34.1942 24.7023C34.2524 25.116 33.7489 25.4616 33.4482 25.7656C33.3887 25.8273 33.3383 25.8973 33.2987 25.9733C32.4912 27.5717 32.0758 28.3028 31.6886 29.7168C31.5308 30.2983 31.3663 31.576 32.3666 31.4763C32.6645 31.4464 32.9243 31.3595 33.1458 31.2155C34.8489 30.1122 36.1366 28.233 37.4409 26.4203C37.5235 26.3051 37.6483 26.2272 37.7883 26.2036C37.9283 26.1799 38.0721 26.2124 38.1886 26.294Z" fill="#282825"/>
<path d="M88.8383 133.404C88.1416 133.299 87.7174 133.234 87.5656 133.208C86.3815 133.009 85.0661 132.607 83.6195 132.002C81.29 131.028 79.0253 129.57 77.196 127.813C73.6735 124.431 71.637 120.187 71.0865 115.079C71.0677 114.9 71.0599 114.237 71.0632 113.09C71.0666 112.317 71.107 111.657 71.1845 111.11C71.4393 109.329 71.8381 107.767 72.3808 106.426C74.4256 101.373 77.932 97.7462 82.9 95.5463C84.1716 94.9836 85.6742 94.5765 87.4078 94.3251C88.4479 94.1739 89.2886 94.2088 90.3919 94.1656C90.6633 94.1545 91.2564 94.2049 92.1714 94.3168C95.6722 94.7438 99.0451 96.2608 101.705 98.4124C103.88 100.173 105.582 102.299 106.813 104.793C109.041 109.309 109.471 114.39 107.956 119.273C105.901 125.899 100.984 131.236 94.2234 133.04C93.1456 133.328 91.7781 133.487 90.121 133.516C89.7921 133.521 89.3645 133.484 88.8383 133.404Z" fill="white"/>
<path d="M159.548 135.005C153.012 133.91 148.128 129.778 145.395 123.746C143.923 120.5 143.327 117.116 143.606 113.596C143.645 113.107 143.743 112.493 143.902 111.753C144.131 110.683 144.206 110.178 144.483 109.336C145.832 105.247 148.452 101.47 151.995 99.0625C154.918 97.077 158.292 95.7179 161.836 95.6846C163.122 95.673 164.317 95.683 165.586 95.9488C170.359 96.9524 174.177 99.2769 177.041 102.922C178.481 104.753 179.554 106.754 180.261 108.924C180.963 111.082 181.276 113.331 181.198 115.671C181.104 118.525 180.483 121.212 179.335 123.733C177.277 128.258 174.008 131.566 169.527 133.657C166.355 135.139 163.029 135.589 159.548 135.005Z" fill="white"/>
<path d="M124.73 127.931C124.35 127.88 123.846 127.666 123.218 127.288C122.039 126.579 120.993 125.691 120.079 124.623C119.177 123.568 118.177 122.013 118.295 120.601C118.451 118.755 120.455 117.939 121.985 117.723C123.874 117.456 125.861 117.408 127.948 117.578C129.415 117.698 130.638 118.081 131.617 118.726C132.625 119.393 132.792 120.514 132.512 121.604C132.409 122.007 132.18 122.5 131.823 123.083C130.55 125.158 127.478 128.305 124.73 127.931Z" fill="#E10C02"/>
<path d="M16.7698 23.3089L16.8529 22.5595C16.8639 22.468 16.8874 22.3785 16.9227 22.2937C17.4621 21.022 18.0735 19.8872 18.757 18.8892C18.7644 18.8787 18.7749 18.8708 18.7871 18.8666C18.7993 18.8624 18.8124 18.8622 18.8245 18.8659C18.8366 18.8696 18.8471 18.8772 18.8544 18.8873C18.8617 18.8975 18.8654 18.9098 18.865 18.9224C18.8633 19.0803 18.7852 19.3577 18.7238 19.469C18.0647 20.6532 17.5635 21.752 17.2201 22.7655C17.1846 22.8697 17.055 23.0596 16.8313 23.3354C16.8265 23.3412 16.8199 23.3453 16.8125 23.3471C16.8052 23.3488 16.7975 23.3482 16.7906 23.3452C16.7836 23.3422 16.7779 23.337 16.7741 23.3305C16.7704 23.3239 16.7689 23.3163 16.7698 23.3089Z" fill="#FFF37D"/>
<path d="M81.3667 117.237C80.6887 118.18 79.4409 118.601 78.3709 117.881C76.7825 116.813 77.3956 115.334 78.3526 113.98C80.5558 110.86 83.3887 108.166 86.9577 106.844C90.53 105.519 94.5925 106.089 97.6364 108.269C100.017 109.974 101.571 112.119 102.988 114.576C103.306 115.127 103.553 115.67 103.729 116.206C103.992 117.009 103.545 117.689 102.987 118.182C102.582 118.539 102.09 118.72 101.511 118.725C100.667 118.735 100.24 118.322 99.7997 117.614C99.4131 116.996 98.9662 116.249 98.4588 115.374C97.6065 113.904 96.0845 112.312 94.5775 111.454C92.0885 110.041 89.4849 110.116 86.7666 111.679C85.4263 112.449 84.2749 113.428 83.3123 114.616C82.9291 115.089 82.2805 115.963 81.3667 117.237Z" fill="black"/>
<path d="M149.102 118.2C148.613 117.567 148.743 116.538 149.054 115.809C149.139 115.608 149.379 115.201 149.773 114.588C152.036 111.075 155.635 107.82 159.875 107.054C165.9 105.964 170.713 109.899 173.792 114.637C174.399 115.57 174.995 116.628 175.186 117.514C175.386 118.442 174.708 119.369 173.859 119.767C171.853 120.704 171.089 118.542 170.31 117.208C169.283 115.45 168.064 114.037 166.653 112.969C164.7 111.489 161.914 110.715 159.561 111.643C156.429 112.88 154.515 115.101 152.829 117.916C152.694 118.141 152.458 118.398 152.121 118.687C151.144 119.526 149.825 119.139 149.102 118.2Z" fill="black"/>
</svg>
